<?xml version="1.0" encoding="utf-8"?>
<svg height="800px" width="800px" version="1.1" id="Layer_1" xmlns="http://www.w3.org/2000/svg" viewBox="0 0 512 512">
  <path style="fill: rgb(3, 105, 161);" d="M504.745,195.319C477.495,83.228,376.476,0,256,0C114.616,0,0,114.616,0,256 c0,120.476,83.228,221.495,195.319,248.745L504.745,195.319z"/>
  <path style="fill: rgb(7, 89, 133);" d="M512,256c0-20.91-2.526-41.226-7.255-60.681l-62.867-62.867L70.122,379.548l125.197,125.197 C214.774,509.474,235.09,512,256,512C397.385,512,512,397.385,512,256z"/>
  <polygon style="fill: rgb(206, 237, 253);" points="70.122,132.452 70.122,379.548 256,344.248 256,167.751 "/>
  <polygon style="fill: rgb(150, 219, 252);" points="256,167.751 256,344.248 441.878,379.548 441.878,132.452 "/>
  <polygon style="fill: rgb(105, 204, 248);" points="256,221.496 233.739,300.522 256,379.548 441.878,379.548 "/>
  <polygon style="fill: rgb(150, 219, 252);" points="70.122,379.548 256,379.548 256,221.496 "/>
  <polygon style="fill: rgb(206, 237, 253);" points="256,132.452 233.739,211.478 256,290.504 441.878,132.452 "/>
  <polygon style="fill:#FFFFFF;" points="70.122,132.452 256,290.504 256,132.452 "/>
</svg>